<svg width="215" height="32" viewBox="0 0 215 32" fill="none" xmlns="http://www.w3.org/2000/svg">
<path d="M52.6992 21.6328H60.4453V24H49.7344V6.9375H52.6992V21.6328ZM65.4727 24H62.625V11.3203H65.4727V24ZM62.4492 8.02734C62.4492 7.58984 62.5859 7.22656 62.8594 6.9375C63.1406 6.64844 63.5391 6.50391 64.0547 6.50391C64.5703 6.50391 64.9688 6.64844 65.25 6.9375C65.5312 7.22656 65.6719 7.58984 65.6719 8.02734C65.6719 8.45703 65.5312 8.81641 65.25 9.10547C64.9688 9.38672 64.5703 9.52734 64.0547 9.52734C63.5391 9.52734 63.1406 9.38672 62.8594 9.10547C62.5859 8.81641 62.4492 8.45703 62.4492 8.02734ZM79.7109 17.7891C79.7109 19.7578 79.2695 21.3242 78.3867 22.4883C77.5117 23.6523 76.3047 24.2344 74.7656 24.2344C73.2812 24.2344 72.125 23.6992 71.2969 22.6289L71.1562 24H68.5781V6H71.4258V12.5391C72.2461 11.5703 73.3516 11.0859 74.7422 11.0859C76.2891 11.0859 77.5039 11.6602 78.3867 12.8086C79.2695 13.957 79.7109 15.5625 79.7109 17.625V17.7891ZM76.8633 17.543C76.8633 16.168 76.6211 15.1367 76.1367 14.4492C75.6523 13.7617 74.9492 13.418 74.0273 13.418C72.793 13.418 71.9258 13.957 71.4258 15.0352V20.2617C71.9336 21.3633 72.8086 21.9141 74.0508 21.9141C74.9414 21.9141 75.6289 21.582 76.1133 20.918C76.5977 20.2539 76.8477 19.25 76.8633 17.9062V17.543Z" fill="#737380"/>
<path d="M91.4297 26.2383H80.6836V24H91.4297V26.2383ZM106.77 15.9141C106.77 17.5312 106.512 18.9336 105.996 20.1211C105.488 21.3008 104.773 22.2383 103.852 22.9336L106.781 25.2188L104.859 26.9531L101.227 24.082C100.75 24.1836 100.238 24.2344 99.6914 24.2344C98.3164 24.2344 97.0859 23.8984 96 23.2266C94.9219 22.5469 94.0859 21.582 93.4922 20.332C92.9062 19.082 92.6094 17.6406 92.6016 16.0078V15.0469C92.6016 13.3828 92.8945 11.9141 93.4805 10.6406C94.0742 9.36719 94.9062 8.39453 95.9766 7.72266C97.0547 7.04297 98.2852 6.70312 99.668 6.70312C101.074 6.70312 102.312 7.03906 103.383 7.71094C104.461 8.375 105.293 9.33594 105.879 10.5938C106.465 11.8438 106.762 13.3008 106.77 14.9648V15.9141ZM103.793 15.0234C103.793 13.1016 103.434 11.6445 102.715 10.6523C101.996 9.66016 100.98 9.16406 99.668 9.16406C98.3945 9.16406 97.3945 9.66797 96.668 10.6758C95.9492 11.6758 95.582 13.0898 95.5664 14.918V15.9141C95.5664 17.7578 95.9258 19.1992 96.6445 20.2383C97.3711 21.2773 98.3867 21.7969 99.6914 21.7969C101.012 21.7969 102.023 21.2969 102.727 20.2969C103.438 19.2969 103.793 17.8359 103.793 15.9141V15.0234ZM117.188 22.7578C116.352 23.7422 115.164 24.2344 113.625 24.2344C112.25 24.2344 111.207 23.832 110.496 23.0273C109.793 22.2227 109.441 21.0586 109.441 19.5352V11.3203H112.289V19.5C112.289 21.1094 112.957 21.9141 114.293 21.9141C115.676 21.9141 116.609 21.418 117.094 20.4258V11.3203H119.941V24H117.258L117.188 22.7578ZM130.418 24C130.293 23.7578 130.184 23.3633 130.09 22.8164C129.184 23.7617 128.074 24.2344 126.762 24.2344C125.488 24.2344 124.449 23.8711 123.645 23.1445C122.84 22.418 122.438 21.5195 122.438 20.4492C122.438 19.0977 122.938 18.0625 123.938 17.3438C124.945 16.6172 126.383 16.2539 128.25 16.2539H129.996V15.4219C129.996 14.7656 129.812 14.2422 129.445 13.8516C129.078 13.4531 128.52 13.2539 127.77 13.2539C127.121 13.2539 126.59 13.418 126.176 13.7461C125.762 14.0664 125.555 14.4766 125.555 14.9766H122.707C122.707 14.2812 122.938 13.6328 123.398 13.0312C123.859 12.4219 124.484 11.9453 125.273 11.6016C126.07 11.2578 126.957 11.0859 127.934 11.0859C129.418 11.0859 130.602 11.4609 131.484 12.2109C132.367 12.9531 132.82 14 132.844 15.3516V21.0703C132.844 22.2109 133.004 23.1211 133.324 23.8008V24H130.418ZM127.289 21.9492C127.852 21.9492 128.379 21.8125 128.871 21.5391C129.371 21.2656 129.746 20.8984 129.996 20.4375V18.0469H128.461C127.406 18.0469 126.613 18.2305 126.082 18.5977C125.551 18.9648 125.285 19.4844 125.285 20.1562C125.285 20.7031 125.465 21.1406 125.824 21.4688C126.191 21.7891 126.68 21.9492 127.289 21.9492ZM138.855 24H136.008V6H138.855V24ZM144.996 24H142.148V11.3203H144.996V24ZM141.973 8.02734C141.973 7.58984 142.109 7.22656 142.383 6.9375C142.664 6.64844 143.062 6.50391 143.578 6.50391C144.094 6.50391 144.492 6.64844 144.773 6.9375C145.055 7.22656 145.195 7.58984 145.195 8.02734C145.195 8.45703 145.055 8.81641 144.773 9.10547C144.492 9.38672 144.094 9.52734 143.578 9.52734C143.062 9.52734 142.664 9.38672 142.383 9.10547C142.109 8.81641 141.973 8.45703 141.973 8.02734ZM151.676 8.23828V11.3203H153.914V13.4297H151.676V20.5078C151.676 20.9922 151.77 21.3438 151.957 21.5625C152.152 21.7734 152.496 21.8789 152.988 21.8789C153.316 21.8789 153.648 21.8398 153.984 21.7617V23.9648C153.336 24.1445 152.711 24.2344 152.109 24.2344C149.922 24.2344 148.828 23.0273 148.828 20.6133V13.4297H146.742V11.3203H148.828V8.23828H151.676ZM160.535 19.9219L163.113 11.3203H166.148L161.109 25.9219C160.336 28.0547 159.023 29.1211 157.172 29.1211C156.758 29.1211 156.301 29.0508 155.801 28.9102V26.707L156.34 26.7422C157.059 26.7422 157.598 26.6094 157.957 26.3438C158.324 26.0859 158.613 25.6484 158.824 25.0312L159.234 23.9414L154.781 11.3203H157.852L160.535 19.9219Z" fill="#A8A8B3"/>
<path fill-rule="evenodd" clip-rule="evenodd" d="M0 16C0 7.16002 7.16002 0 16 0C24.84 0 32 7.16002 31.9999 16C31.9999 24.832 24.8399 31.9999 16 31.9999C7.16002 31.9999 0 24.832 0 16ZM6.39997 25.6L19.504 19.504L25.6 6.39997L12.496 12.496L6.39997 25.6ZM17.76 16C17.76 16.968 16.9759 17.76 16 17.76C15.032 17.76 14.2399 16.968 14.2399 16C14.2399 15.0319 15.0319 14.2399 16 14.2399C16.976 14.2399 17.76 15.0319 17.76 16Z" fill="#121214"/>
</svg>
